<?xml version="1.0" encoding="UTF-8"?>
<svg xmlns="http://www.w3.org/2000/svg" xmlns:xlink="http://www.w3.org/1999/xlink" width="375pt" height="374.999991pt" viewBox="0 0 375 374.999991" version="1.2">
<defs>
<clipPath id="clip1">
  <path d="M 92.945312 99.367188 L 282.054688 99.367188 L 282.054688 369.519531 L 92.945312 369.519531 Z M 92.945312 99.367188 "/>
</clipPath>
</defs>
<g id="surface1">
<g clip-path="url(#clip1)" clip-rule="nonzero">
<path style=" stroke:none;fill-rule:nonzero;fill:rgb(100%,100%,100%);fill-opacity:1;" d="M 187.5 99.367188 C 135.292969 99.367188 92.945312 141.714844 92.945312 193.921875 C 92.945312 264.835938 187.5 369.519531 187.5 369.519531 C 187.5 369.519531 282.054688 264.835938 282.054688 193.921875 C 282.054688 141.714844 239.707031 99.367188 187.5 99.367188 Z M 187.5 227.691406 C 168.859375 227.691406 153.730469 212.5625 153.730469 193.921875 C 153.730469 175.28125 168.859375 160.152344 187.5 160.152344 C 206.140625 160.152344 221.269531 175.28125 221.269531 193.921875 C 221.269531 212.5625 206.140625 227.691406 187.5 227.691406 Z M 187.5 227.691406 "/>
</g>
<path style=" stroke:none;fill-rule:nonzero;fill:rgb(100%,100%,100%);fill-opacity:1;" d="M 187.5 5.480469 C 186.285156 5.480469 185.074219 5.539062 183.863281 5.660156 C 182.65625 5.777344 181.453125 5.957031 180.261719 6.191406 C 179.070312 6.429688 177.894531 6.726562 176.730469 7.078125 C 175.570312 7.429688 174.425781 7.839844 173.304688 8.304688 C 172.183594 8.769531 171.085938 9.289062 170.015625 9.859375 C 168.941406 10.433594 167.902344 11.058594 166.890625 11.730469 C 165.882812 12.40625 164.90625 13.128906 163.96875 13.902344 C 163.027344 14.671875 162.128906 15.484375 161.269531 16.34375 C 160.410156 17.203125 159.597656 18.101562 158.824219 19.042969 C 158.054688 19.980469 157.332031 20.957031 156.65625 21.964844 C 155.980469 22.976562 155.359375 24.015625 154.785156 25.089844 C 154.210938 26.160156 153.695312 27.257812 153.230469 28.378906 C 152.765625 29.503906 152.355469 30.644531 152.003906 31.808594 C 151.648438 32.96875 151.355469 34.148438 151.117188 35.339844 C 150.882812 36.53125 150.703125 37.730469 150.582031 38.9375 C 150.464844 40.148438 150.40625 41.359375 150.40625 42.574219 C 150.40625 43.789062 150.464844 45 150.582031 46.210938 C 150.703125 47.421875 150.882812 48.621094 151.117188 49.8125 C 151.355469 51.003906 151.648438 52.179688 152.003906 53.34375 C 152.355469 54.503906 152.765625 55.648438 153.230469 56.769531 C 153.695312 57.894531 154.210938 58.988281 154.785156 60.0625 C 155.359375 61.132812 155.980469 62.171875 156.65625 63.183594 C 157.332031 64.195312 158.054688 65.167969 158.824219 66.109375 C 159.597656 67.046875 160.410156 67.945312 161.269531 68.804688 C 162.128906 69.664062 163.027344 70.480469 163.96875 71.25 C 164.90625 72.019531 165.882812 72.742188 166.890625 73.417969 C 167.902344 74.09375 168.941406 74.71875 170.015625 75.289062 C 171.085938 75.863281 172.183594 76.382812 173.304688 76.847656 C 174.425781 77.3125 175.570312 77.71875 176.730469 78.074219 C 177.894531 78.425781 179.070312 78.71875 180.261719 78.957031 C 181.453125 79.195312 182.65625 79.371094 183.863281 79.492188 C 185.074219 79.609375 186.285156 79.667969 187.5 79.667969 C 188.714844 79.667969 189.925781 79.609375 191.136719 79.492188 C 192.34375 79.371094 193.546875 79.195312 194.738281 78.957031 C 195.929688 78.71875 197.105469 78.425781 198.269531 78.074219 C 199.429688 77.71875 200.574219 77.3125 201.695312 76.847656 C 202.816406 76.382812 203.914062 75.863281 204.984375 75.289062 C 206.058594 74.71875 207.097656 74.09375 208.109375 73.417969 C 209.117188 72.742188 210.09375 72.019531 211.03125 71.25 C 211.972656 70.480469 212.871094 69.664062 213.730469 68.804688 C 214.589844 67.945312 215.402344 67.046875 216.175781 66.109375 C 216.945312 65.167969 217.667969 64.195312 218.34375 63.183594 C 219.019531 62.171875 219.640625 61.132812 220.214844 60.0625 C 220.789062 58.988281 221.304688 57.894531 221.769531 56.769531 C 222.234375 55.648438 222.644531 54.503906 222.996094 53.34375 C 223.351562 52.179688 223.644531 51.003906 223.882812 49.8125 C 224.117188 48.621094 224.296875 47.421875 224.417969 46.210938 C 224.535156 45 224.59375 43.789062 224.59375 42.574219 C 224.59375 41.359375 224.535156 40.148438 224.417969 38.9375 C 224.296875 37.730469 224.117188 36.53125 223.882812 35.339844 C 223.644531 34.148438 223.351562 32.96875 222.996094 31.808594 C 222.644531 30.644531 222.234375 29.503906 221.769531 28.378906 C 221.304688 27.257812 220.789062 26.160156 220.214844 25.089844 C 219.640625 24.015625 219.019531 22.976562 218.34375 21.964844 C 217.667969 20.957031 216.945312 19.980469 216.175781 19.042969 C 215.402344 18.101562 214.589844 17.203125 213.730469 16.34375 C 212.871094 15.484375 211.972656 14.671875 211.03125 13.902344 C 210.09375 13.128906 209.117188 12.40625 208.109375 11.730469 C 207.097656 11.058594 206.058594 10.433594 204.984375 9.859375 C 203.914062 9.289062 202.816406 8.769531 201.695312 8.304688 C 200.574219 7.839844 199.429688 7.429688 198.269531 7.078125 C 197.105469 6.726562 195.929688 6.429688 194.738281 6.191406 C 193.546875 5.957031 192.34375 5.777344 191.136719 5.660156 C 189.925781 5.539062 188.714844 5.480469 187.5 5.480469 Z M 187.5 5.480469 "/>
</g>
</svg>
